<?xml version="1.0" encoding="UTF-8" standalone="no"?>
<!-- Created with Inkscape (http://www.inkscape.org/) -->

<svg
   width="48"
   height="48"
   viewBox="0 0 48 48"
   version="1.1"
   id="svg1"
   xmlns="http://www.w3.org/2000/svg"
   xmlns:svg="http://www.w3.org/2000/svg">
  <defs
     id="defs1">
    <linearGradient
       id="swatch2">
      <stop
         style="stop-color:#2a7aff;stop-opacity:0;"
         offset="0"
         id="stop2" />
    </linearGradient>
  </defs>
  <g
     id="layer2"
     transform="matrix(1.0606798,0,0,1.0606798,-0.09523155,-1.133902)">
    <ellipse
       style="fill:#ff2a2a;fill-opacity:0;stroke:#ec0000;stroke-width:3;stroke-opacity:1"
       id="path1"
       ry="19.77356"
       rx="19.824505"
       cy="23.937218"
       cx="23.943987" />
    <ellipse
       style="fill:#ff2a30;fill-opacity:0;stroke:#ec0000;stroke-width:3;stroke-opacity:1"
       id="ellipse2"
       ry="12.51825"
       rx="11.832977"
       cy="23.843428"
       cx="23.914755" />
    <g
       id="g18">
      <path
         style="fill:#0dd7fd;fill-opacity:1;stroke:none;stroke-opacity:1"
         d="m 27.47453,19.46722 -1.169306,-0.847747 -1.54933,-0.292327 -1.666261,0.0877 -1.987819,0.87698 -2.163216,1.637028 -3.446895,3.091603 -12.5677258,-3.224614 -1.3229184,0.33073 -1.40560082,0.826824 V 23.77241 L 10.427406,29.518837 6.81005,33.818319 4.4742722,36.650192 0.7742348,35.513309 0.11277558,35.530559 v 3.786142 l 2.81120162,1.819013 1.1575536,-0.33073 -0.082682,0.992189 4.3821673,2.976567 1.2402359,-0.08268 0.909506,-0.496094 0.496095,-0.992189 -0.33073,-1.405601 -1.7363301,-2.315107 3.4313201,-2.728519 5.786551,-4.33961 14.92539,4.670339 1.405601,-0.165364 1.157553,-0.744142 1.074872,-1.570966 -0.248048,-1.322918 -12.217793,-6.760755 2.732673,-3.263878 0.637243,-1.254421 0.238861,-1.536718 z"
         id="path2" />
      <path
         style="fill:#9eaeaf;fill-opacity:1;stroke:none;stroke-opacity:1"
         d="M 9.0027809,39.495462 18.148787,32.411501 17.280622,31.956748 8.8056757,39.232799 Z"
         id="path8" />
      <path
         style="fill:#9eaeaf;fill-opacity:1;stroke:none;stroke-opacity:1"
         d="m 24.353514,26.548143 2.954426,-3.224613 0.515296,-1.322919 0.106613,-1.523366 -0.471099,-1.045822 0.285778,0.988622 -0.161818,1.421256 -0.750196,1.165077 -3.061326,3.183272 z"
         id="path9" />
      <path
         style="fill:#ffffff;fill-opacity:1;stroke:none;stroke-opacity:1"
         d="m 4.136419,40.53106 -1.0377588,-3.69793 0.1169305,-0.760048 1.5059114,-1.623451 0.6708818,-0.07559 2.032099,1.083077 2.6167521,-2.1697 0.03425,0.292326 -3.6908365,4.397005 z"
         id="path11" />
    </g>
    <path
       style="fill:#ffffff;fill-opacity:1;stroke:none;stroke-width:0.942792;stroke-opacity:1"
       d="m 8.7811435,39.22263 8.5145865,-7.277172 6.570079,-5.804061 2.952646,-3.176936 0.749987,-1.104146 0.166663,-1.458306 -0.249996,-0.937483 -1.091509,-0.852671 -0.94315,-0.17782 0.513854,1.176322 -0.374992,1.999962 -6.104054,5.958224 -6.99987,7.041536 -4.2030478,4.203047 z"
       id="path18" />
  </g>
</svg>
